HIERARCHY
ROOT root
{
	OFFSET 0.000000 0.000000 0.000000
	CHANNELS 6 Xposition Yposition Zposition Zrotation Yrotation Xrotation
	JOINT lhip
	{
		OFFSET 0.058581 -0.082280 -0.017664
		CHANNELS 3 Zrotation Yrotation Xrotation
		JOINT lknee
		{
			OFFSET 0.043451 -0.386469 0.008037
			CHANNELS 3 Zrotation Yrotation Xrotation
			JOINT lankle
			{
				OFFSET -0.014790 -0.426874 -0.037428
				CHANNELS 3 Zrotation Yrotation Xrotation
				JOINT ltoe
				{
					OFFSET 0.041054 -0.060286 0.122042
					CHANNELS 3 Zrotation Yrotation Xrotation
					End Site
					{
						OFFSET 0.000000 0.000000 0.000000
					}
				}
			}
		}
	}
	JOINT rhip
	{
		OFFSET -0.060310 -0.090513 -0.013543
		CHANNELS 3 Zrotation Yrotation Xrotation
		JOINT rknee
		{
			OFFSET -0.043257 -0.383688 -0.004843
			CHANNELS 3 Zrotation Yrotation Xrotation
			JOINT rankle
			{
				OFFSET 0.019056 -0.420046 -0.034562
				CHANNELS 3 Zrotation Yrotation Xrotation
				JOINT rtoe
				{
					OFFSET -0.034840 -0.062106 0.130323
					CHANNELS 3 Zrotation Yrotation Xrotation
					End Site
					{
						OFFSET 0.000000 0.000000 0.000000
					}
				}
			}
		}
	}
	JOINT lowerback
	{
		OFFSET 0.004439 0.124404 -0.038385
		CHANNELS 3 Zrotation Yrotation Xrotation
		JOINT upperback
		{
			OFFSET 0.004488 0.137956 0.026820
			CHANNELS 3 Zrotation Yrotation Xrotation
			JOINT chest
			{
				OFFSET -0.002265 0.056032 0.002855
				CHANNELS 3 Zrotation Yrotation Xrotation
				JOINT lowerneck
				{
					OFFSET -0.013390 0.211636 -0.033468
					CHANNELS 3 Zrotation Yrotation Xrotation
					JOINT upperneck
					{
						OFFSET 0.010113 0.088937 0.050410
						CHANNELS 3 Zrotation Yrotation Xrotation
						End Site
						{
							OFFSET 0.000000 0.000000 0.000000
						}
					}
				}
				JOINT lclavicle
				{
					OFFSET 0.071702 0.114000 -0.018898
					CHANNELS 3 Zrotation Yrotation Xrotation
					JOINT lshoulder
					{
						OFFSET 0.122921 0.045205 -0.019046
						CHANNELS 3 Zrotation Yrotation Xrotation
						JOINT lelbow
						{
							OFFSET 0.255332 -0.015649 -0.022946
							CHANNELS 3 Zrotation Yrotation Xrotation
							JOINT lwrist
							{
								OFFSET 0.265709 0.012698 -0.007375
								CHANNELS 3 Zrotation Yrotation Xrotation
								End Site
								{
									OFFSET 0.000000 0.000000 0.000000
								}
							}
						}
					}
				}
				JOINT rclavicle
				{
					OFFSET -0.082954 0.112472 -0.023707
					CHANNELS 3 Zrotation Yrotation Xrotation
					JOINT rshoulder
					{
						OFFSET -0.113228 0.046853 -0.008472
						CHANNELS 3 Zrotation Yrotation Xrotation
						JOINT relbow
						{
							OFFSET -0.260127 -0.014369 -0.031269
							CHANNELS 3 Zrotation Yrotation Xrotation
							JOINT rwrist
							{
								OFFSET -0.269108 0.006794 -0.006027
								CHANNELS 3 Zrotation Yrotation Xrotation
								End Site
								{
									OFFSET 0.000000 0.000000 0.000000
								}
							}
						}
					}
				}
			}
		}
	}
}
MOTION
Frames: 6
Frame Time: 0.033333
0.042599 0.231923 0.989625 90.038422 0.164176 90.435040 6.741679 2.623307 0.693054 -3.704626 -6.982340 2.827877 -0.821654 7.228683 -6.879011 0.000000 -0.000000 0.000000 -6.660651 -3.365313 -0.112542 1.603766 1.183786 3.989690 2.644065 -3.237142 -6.155541 0.000000 -0.000000 0.000000 -0.186358 2.481629 1.937923 -1.683447 -2.662742 7.892741 -2.732858 -0.261550 -10.406044 -2.888804 -10.538531 5.460806 2.354353 -9.147412 0.994667 -31.308373 -1.189729 3.462877 -51.282909 -3.339885 12.828171 13.702656 -27.806833 -6.014900 -1.017885 -10.555814 -1.313746 27.671301 10.596512 5.034674 56.226966 7.526791 19.294853 -0.037112 19.915225 9.395654 2.747664 5.644538 7.173070 
0.043084 0.231349 0.989451 90.151528 0.320484 90.297165 7.086598 2.553945 0.900534 -3.918036 -7.144472 2.752705 -1.142238 7.358572 -6.769197 0.000000 -0.000000 0.000000 -6.407389 -3.472571 0.175058 1.535437 1.229588 3.880343 2.953731 -3.496081 -6.005472 0.000000 -0.000000 0.000000 0.071265 2.255508 2.740103 -1.962814 -2.534252 6.496730 -2.546409 -0.195075 -9.664047 -3.025936 -10.724100 5.619391 2.459424 -8.868049 0.825029 -31.410660 -1.406321 4.126406 -51.039694 -3.357778 12.346325 13.568205 -28.048291 -5.458416 -0.686207 -10.761862 -2.031671 27.387593 10.747344 5.119860 56.606594 7.435951 19.213224 -0.229321 20.059478 9.808603 2.883731 5.697615 6.618918 
0.043431 0.231158 0.989335 90.100907 0.331436 90.317054 7.123481 2.511510 0.957825 -3.947760 -7.098821 2.677743 -1.125450 7.418783 -6.844447 0.000000 -0.000000 0.000000 -6.351273 -3.384811 0.252046 1.440728 1.365658 3.660910 2.933911 -3.471170 -6.082145 0.000000 -0.000000 0.000000 0.027406 2.236344 2.848493 -1.966913 -2.503556 6.449426 -2.504613 -0.154628 -9.642116 -3.002908 -10.673070 5.419808 2.396349 -8.797301 0.994912 -31.424482 -1.492297 4.187976 -50.957374 -3.324715 12.318275 13.551557 -28.189386 -5.395637 -0.461302 -10.739730 -2.262486 27.366221 10.773135 5.209602 56.636828 7.467452 19.210046 -0.317423 20.289186 9.881575 2.845286 5.696079 6.433769 
0.043544 0.230992 0.989389 90.176913 0.325871 90.389166 7.137132 2.532037 0.854171 -3.961341 -7.124641 2.718545 -1.196157 7.282551 -6.846045 0.000000 -0.000000 0.000000 -6.393598 -3.496524 0.181208 1.536680 1.190962 3.740678 2.983043 -3.489735 -5.956141 0.000000 -0.000000 0.000000 -0.005995 2.118131 2.858368 -1.965917 -2.510813 6.505268 -2.473219 -0.219697 -9.549951 -2.919853 -10.544024 5.402100 2.355642 -8.920458 0.751205 -31.274256 -1.505531 4.168172 -51.137028 -3.424081 12.221762 13.646041 -28.051622 -5.391024 -0.625980 -10.684470 -2.206853 27.243421 10.794235 5.111903 56.744541 7.654921 19.172117 -0.306694 20.252288 9.967275 2.876719 5.664928 6.435015 
0.043458 0.230757 0.989293 90.273953 0.294640 90.501964 7.124722 2.590868 0.661111 -3.994792 -7.208334 2.804546 -1.167944 7.256750 -6.865590 0.000000 -0.000000 0.000000 -6.358913 -3.452767 0.136912 1.422517 1.279064 3.567821 2.959593 -3.549051 -5.993767 0.000000 -0.000000 0.000000 -0.081406 1.969990 2.945734 -1.993182 -2.512285 6.260561 -2.436689 -0.199022 -9.411994 -2.919371 -10.632151 5.315334 2.364226 -8.939190 0.766284 -31.205625 -1.533814 4.225004 -51.150679 -3.419548 12.221833 13.696367 -28.164868 -5.289304 -0.543962 -10.619334 -2.334869 27.147847 10.937308 5.142619 56.862685 7.659895 19.270376 -0.345246 20.250335 9.963332 2.791492 5.647241 6.136396 
0.043560 0.230570 0.989264 90.209388 0.338114 90.461109 7.187123 2.508549 0.764724 -4.003696 -7.125080 2.751412 -1.148271 7.212765 -6.859612 0.000000 -0.000000 0.000000 -6.313447 -3.435791 0.225491 1.436211 1.292197 3.473974 2.954105 -3.496563 -5.992941 0.000000 -0.000000 0.000000 -0.074661 1.918112 3.106450 -2.007038 -2.472818 6.266925 -2.381992 -0.145817 -9.315325 -2.888562 -10.478544 5.193179 2.347664 -9.028889 0.692817 -31.223826 -1.737686 4.365012 -51.126710 -3.422988 12.097857 13.813622 -28.269087 -5.362410 -0.543008 -10.526698 -2.446889 27.144015 11.149726 5.346945 56.854219 7.654541 19.171379 -0.537391 20.476415 9.880240 2.870369 5.602747 5.864035 
